<?xml version="1.0" encoding="UTF-8" standalone="no"?>
<!DOCTYPE svg PUBLIC "-//W3C//DTD SVG 1.1//EN" "http://www.w3.org/Graphics/SVG/1.1/DTD/svg11.dtd">
<svg width="100%" height="100%" viewBox="0 0 50 50" version="1.1" xmlns="http://www.w3.org/2000/svg" xmlns:xlink="http://www.w3.org/1999/xlink" xml:space="preserve" xmlns:serif="http://www.serif.com/" style="fill-rule:evenodd;clip-rule:evenodd;stroke-linecap:round;stroke-linejoin:round;stroke-miterlimit:1.5;">
    <g transform="matrix(1,0,0,1,-55.8,0)">
        <g id="icon_unmute" transform="matrix(1.06383,0,0,1,-5.90213,0)">
            <rect x="58" y="0" width="47" height="50" style="fill:none;"/>
            <g>
                <g transform="matrix(1.33124,0,0,1.41621,26.37,-19.9057)">
                    <path d="M46.708,24C50.963,24 54.417,27.454 54.417,31.708C54.417,35.963 50.963,39.417 46.708,39.417" style="fill:none;stroke:white;stroke-width:2.12px;"/>
                </g>
                <g transform="matrix(0.801083,0,0,0.852216,53.8808,4.47573)">
                    <path d="M12.867,17L25,17L37.833,7.167L37.833,41L24.994,32.16L12.867,32.16L12.867,17Z" style="fill:none;stroke:white;stroke-width:3.52px;"/>
                </g>
                <g transform="matrix(0.685652,0,0,0.729417,56.5472,1.87142)">
                    <path d="M46.708,24C50.963,24 54.417,27.454 54.417,31.708C54.417,35.963 50.963,39.417 46.708,39.417" style="fill:none;stroke:white;stroke-width:4.11px;"/>
                </g>
            </g>
            <g id="crossed-out" serif:id="crossed out" transform="matrix(0.907561,-0.03451,-0.0324394,0.96549,59.6223,0.725866)">
                <path d="M11,10.583L41.971,41.554" style="fill:none;stroke:white;stroke-width:3.22px;"/>
            </g>
        </g>
    </g>
</svg>
